<mxfile host="app.diagrams.net" modified="2024-03-08T04:02:09.247Z" agent="Mozilla/5.0 (Windows NT 10.0; Win64; x64) AppleWebKit/537.36 (KHTML, like Gecko) Chrome/122.0.0.0 Safari/537.36 Edg/122.0.0.0" version="23.1.7" etag="wB60WERa12w8ZZx6qC33" type="github">
  <diagram name="Page-1" id="RzKhJEPEj4_L6NXlxNW_">
    <mxGraphModel>
      <root>
        <mxCell id="0" />
        <mxCell id="1" parent="0" />
      </root>
    </mxGraphModel>
  </diagram>
</mxfile>
